<svg width="631" height="269" viewBox="0 0 631 269" fill="none" xmlns="http://www.w3.org/2000/svg">
<path d="M251.723 123.557L141.555 13.9257C135.659 8.05835 126.123 8.08165 120.255 13.9777L10.6238 124.146C4.75644 130.042 4.77974 139.578 10.6758 145.446L120.844 255.077C126.74 260.945 136.277 260.921 142.144 255.025L251.775 144.857C257.643 138.961 257.619 129.424 251.723 123.557Z" fill="#3A3A3A"/>
<path d="M141.549 13.9228L198.51 70.6065L141.827 127.568C135.966 133.457 126.416 133.481 120.527 127.62L63.5656 70.9362L120.249 13.9748C126.11 8.08531 135.659 8.06198 141.549 13.9228Z" fill="#009688"/>
<path d="M389.399 104.43L363.119 169.5H352.184L325.904 104.43H335.624C336.674 104.43 337.529 104.685 338.189 105.195C338.849 105.705 339.344 106.365 339.674 107.175L355.019 146.865C355.529 148.155 356.009 149.58 356.459 151.14C356.939 152.67 357.389 154.275 357.809 155.955C358.169 154.275 358.559 152.67 358.979 151.14C359.399 149.58 359.864 148.155 360.374 146.865L375.629 107.175C375.869 106.485 376.334 105.855 377.024 105.285C377.744 104.715 378.614 104.43 379.634 104.43H389.399ZM405.899 123.33V169.5H394.739V123.33H405.899ZM407.429 109.875C407.429 110.835 407.234 111.735 406.844 112.575C406.454 113.415 405.929 114.15 405.269 114.78C404.639 115.41 403.889 115.92 403.019 116.31C402.149 116.67 401.219 116.85 400.229 116.85C399.269 116.85 398.354 116.67 397.484 116.31C396.644 115.92 395.909 115.41 395.279 114.78C394.649 114.15 394.139 113.415 393.749 112.575C393.389 111.735 393.209 110.835 393.209 109.875C393.209 108.885 393.389 107.955 393.749 107.085C394.139 106.215 394.649 105.465 395.279 104.835C395.909 104.205 396.644 103.71 397.484 103.35C398.354 102.96 399.269 102.765 400.229 102.765C401.219 102.765 402.149 102.96 403.019 103.35C403.889 103.71 404.639 104.205 405.269 104.835C405.929 105.465 406.454 106.215 406.844 107.085C407.234 107.955 407.429 108.885 407.429 109.875ZM450.306 133.095C449.976 133.515 449.646 133.845 449.316 134.085C449.016 134.325 448.566 134.445 447.966 134.445C447.396 134.445 446.841 134.28 446.301 133.95C445.761 133.59 445.116 133.2 444.366 132.78C443.616 132.33 442.716 131.94 441.666 131.61C440.646 131.25 439.371 131.07 437.841 131.07C435.891 131.07 434.181 131.43 432.711 132.15C431.241 132.84 430.011 133.845 429.021 135.165C428.061 136.485 427.341 138.09 426.861 139.98C426.381 141.84 426.141 143.955 426.141 146.325C426.141 148.785 426.396 150.975 426.906 152.895C427.446 154.815 428.211 156.435 429.201 157.755C430.191 159.045 431.391 160.035 432.801 160.725C434.211 161.385 435.801 161.715 437.571 161.715C439.341 161.715 440.766 161.505 441.846 161.085C442.956 160.635 443.886 160.155 444.636 159.645C445.386 159.105 446.031 158.625 446.571 158.205C447.141 157.755 447.771 157.53 448.461 157.53C449.361 157.53 450.036 157.875 450.486 158.565L453.681 162.615C452.451 164.055 451.116 165.27 449.676 166.26C448.236 167.22 446.736 168 445.176 168.6C443.646 169.17 442.056 169.575 440.406 169.815C438.786 170.055 437.166 170.175 435.546 170.175C432.696 170.175 430.011 169.65 427.491 168.6C424.971 167.52 422.766 165.96 420.876 163.92C418.986 161.88 417.486 159.39 416.376 156.45C415.296 153.48 414.756 150.105 414.756 146.325C414.756 142.935 415.236 139.8 416.196 136.92C417.186 134.01 418.626 131.505 420.516 129.405C422.406 127.275 424.746 125.61 427.536 124.41C430.326 123.21 433.536 122.61 437.166 122.61C440.616 122.61 443.631 123.165 446.211 124.275C448.821 125.385 451.161 126.975 453.231 129.045L450.306 133.095ZM486.485 160.05C488.735 160.05 490.625 159.78 492.155 159.24C493.685 158.7 494.9 157.98 495.8 157.08C496.73 156.18 497.39 155.13 497.78 153.93C498.2 152.73 498.41 151.455 498.41 150.105C498.41 148.695 498.185 147.435 497.735 146.325C497.285 145.185 496.58 144.225 495.62 143.445C494.66 142.635 493.415 142.02 491.885 141.6C490.385 141.18 488.57 140.97 486.44 140.97H474.245V160.05H486.485ZM474.245 113.79V132.6H483.875C488.015 132.6 491.135 131.85 493.235 130.35C495.365 128.85 496.43 126.465 496.43 123.195C496.43 119.805 495.47 117.39 493.55 115.95C491.63 114.51 488.63 113.79 484.55 113.79H474.245ZM484.55 104.43C488.81 104.43 492.455 104.835 495.485 105.645C498.515 106.455 500.99 107.61 502.91 109.11C504.86 110.61 506.285 112.425 507.185 114.555C508.085 116.685 508.535 119.085 508.535 121.755C508.535 123.285 508.31 124.755 507.86 126.165C507.41 127.545 506.705 128.85 505.745 130.08C504.815 131.28 503.615 132.375 502.145 133.365C500.705 134.355 498.98 135.195 496.97 135.885C505.91 137.895 510.38 142.725 510.38 150.375C510.38 153.135 509.855 155.685 508.805 158.025C507.755 160.365 506.225 162.39 504.215 164.1C502.205 165.78 499.73 167.1 496.79 168.06C493.85 169.02 490.49 169.5 486.71 169.5H462.14V104.43H484.55ZM539.438 122.61C542.858 122.61 545.963 123.165 548.753 124.275C551.573 125.385 553.973 126.96 555.953 129C557.963 131.04 559.508 133.53 560.588 136.47C561.668 139.41 562.208 142.695 562.208 146.325C562.208 149.985 561.668 153.285 560.588 156.225C559.508 159.165 557.963 161.67 555.953 163.74C553.973 165.81 551.573 167.4 548.753 168.51C545.963 169.62 542.858 170.175 539.438 170.175C535.988 170.175 532.853 169.62 530.033 168.51C527.213 167.4 524.798 165.81 522.788 163.74C520.808 161.67 519.263 159.165 518.153 156.225C517.073 153.285 516.533 149.985 516.533 146.325C516.533 142.695 517.073 139.41 518.153 136.47C519.263 133.53 520.808 131.04 522.788 129C524.798 126.96 527.213 125.385 530.033 124.275C532.853 123.165 535.988 122.61 539.438 122.61ZM539.438 161.625C543.278 161.625 546.113 160.335 547.943 157.755C549.803 155.175 550.733 151.395 550.733 146.415C550.733 141.435 549.803 137.64 547.943 135.03C546.113 132.42 543.278 131.115 539.438 131.115C535.538 131.115 532.643 132.435 530.753 135.075C528.893 137.685 527.963 141.465 527.963 146.415C527.963 151.365 528.893 155.145 530.753 157.755C532.643 160.335 535.538 161.625 539.438 161.625ZM609.799 169.5H599.089C598.279 169.5 597.619 169.29 597.109 168.87C596.629 168.45 596.224 167.97 595.894 167.43L586.129 151.365C585.979 151.875 585.799 152.355 585.589 152.805C585.409 153.255 585.199 153.675 584.959 154.065L576.319 167.43C575.989 167.94 575.584 168.42 575.104 168.87C574.624 169.29 574.024 169.5 573.304 169.5H563.359L579.199 145.695L563.989 123.33H574.699C575.509 123.33 576.109 123.45 576.499 123.69C576.889 123.9 577.234 124.26 577.534 124.77L587.209 140.16C587.539 139.14 588.004 138.135 588.604 137.145L596.389 124.995C597.049 123.885 597.904 123.33 598.954 123.33H609.169L594.004 145.2L609.799 169.5Z" fill="#555555"/>
</svg>
